<?xml version="1.0" encoding="iso-8859-1"?>
<!-- Generator: Adobe Illustrator 19.0.0, SVG Export Plug-In . SVG Version: 6.00 Build 0)  -->
<svg version="1.1" id="Layer_1" xmlns="http://www.w3.org/2000/svg" xmlns:xlink="http://www.w3.org/1999/xlink" x="0px" y="0px"
	 viewBox="0 0 512 512" style="enable-background:new 0 0 512 512;" xml:space="preserve">
<circle style="fill:#242424;" cx="256" cy="256" r="256"/>
<path style="fill:#0F161A;" d="M256,505.6C118.368,505.6,6.4,393.632,6.4,256S118.368,6.4,256,6.4S505.6,118.368,505.6,256
	S393.632,505.6,256,505.6z"/>
<g style="opacity:0.2;">
	<path style="fill:#588199;" d="M79.588,79.584C34.396,124.788,6.4,187.184,6.4,256s27.996,131.212,73.188,176.416L256,256
		L79.588,79.584z"/>
	<path style="fill:#588199;" d="M505.6,256c0-68.812-27.992-131.212-73.188-176.416L256,256l176.416,176.416
		C477.608,387.212,505.6,324.812,505.6,256z"/>
</g>
<path style="fill:#66401E;" d="M256,352c-52.936,0-96-43.064-96-96s43.064-96,96-96s96,43.064,96,96S308.936,352,256,352z"/>
<path style="fill:#FFEACC;" d="M256,339.2c-45.88,0-83.2-37.324-83.2-83.2s37.32-83.2,83.2-83.2c45.884,0,83.2,37.324,83.2,83.2
	S301.884,339.2,256,339.2z"/>
<circle style="fill:#242424;" cx="256" cy="256" r="6.4"/>
<g>
</g>
<g>
</g>
<g>
</g>
<g>
</g>
<g>
</g>
<g>
</g>
<g>
</g>
<g>
</g>
<g>
</g>
<g>
</g>
<g>
</g>
<g>
</g>
<g>
</g>
<g>
</g>
<g>
</g>
</svg>
